<svg width="30" height="30" viewBox="0 0 30 30" fill="none" xmlns="http://www.w3.org/2000/svg">
<path d="M9.375 0H20.625C25.8047 0 30 4.19531 30 9.375V20.625C30 25.8047 25.8047 30 20.625 30H9.375C4.19531 30 0 25.8047 0 20.625V9.375C0 4.19531 4.19531 0 9.375 0ZM2.8125 20.625C2.8125 24.2461 5.75391 27.1875 9.375 27.1875H20.625C24.2461 27.1875 27.1875 24.2461 27.1875 20.625V9.375C27.1875 5.75391 24.2461 2.8125 20.625 2.8125H9.375C5.75391 2.8125 2.8125 5.75391 2.8125 9.375V20.625Z" fill="white"/>
<path d="M15 7.5C19.1426 7.5 22.5 10.8574 22.5 15C22.5 19.1426 19.1426 22.5 15 22.5C10.8574 22.5 7.5 19.1426 7.5 15C7.5 10.8574 10.8574 7.5 15 7.5ZM15 19.6875C17.584 19.6875 19.6875 17.584 19.6875 15C19.6875 12.416 17.584 10.3125 15 10.3125C12.416 10.3125 10.3125 12.416 10.3125 15C10.3125 17.584 12.416 19.6875 15 19.6875Z" fill="white"/>
<path d="M6.9375 7.93945C6.38414 7.93945 5.93555 7.49086 5.93555 6.9375C5.93555 6.38414 6.38414 5.93555 6.9375 5.93555C7.49086 5.93555 7.93945 6.38414 7.93945 6.9375C7.93945 7.49086 7.49086 7.93945 6.9375 7.93945Z" fill="white"/>
</svg>
