<svg width="34" height="28" viewBox="0 0 34 28" fill="none" xmlns="http://www.w3.org/2000/svg">
<path d="M34 3.31154C32.7383 3.87692 31.3902 4.24711 29.9824 4.42884C31.4301 3.55384 32.5324 2.18077 33.0504 0.525C31.7023 1.33942 30.2148 1.91154 28.6277 2.23461C27.3527 0.854807 25.5266 0 23.541 0C19.6828 0 16.575 3.17692 16.575 7.0673C16.575 7.62596 16.6215 8.16442 16.7344 8.67595C10.9371 8.39326 5.81055 5.57307 2.36406 1.28558C1.75977 2.34231 1.40781 3.55384 1.40781 4.85961C1.40781 7.30961 2.64961 9.47692 4.50234 10.7288C3.38008 10.7086 2.28437 10.3788 1.35469 9.86057C1.35469 9.88076 1.35469 9.90769 1.35469 9.94134C1.35469 13.374 3.77187 16.2279 6.93945 16.8808C6.375 17.0356 5.75078 17.1163 5.11328 17.1163C4.66836 17.1163 4.2168 17.0894 3.7918 16.9952C4.69492 19.7952 7.2582 21.8481 10.3062 21.9154C7.93555 23.7933 4.9207 24.9307 1.6668 24.9307C1.0957 24.9307 0.544531 24.9038 0 24.8365C3.08789 26.8557 6.74687 28.0067 10.6914 28.0067C23.5211 28.0067 30.5336 17.2375 30.5336 7.90192C30.5336 7.5923 30.5203 7.28942 30.507 6.98653C31.8883 5.99038 33.0504 4.74519 34 3.31154Z" fill="white"/>
</svg>
